<?xml version="1.0" encoding="UTF-8"?>
<svg version="1.1" xmlns="http://www.w3.org/2000/svg" width="920" height="920">
<path d="M0 0 C303.6 0 607.2 0 920 0 C920 303.6 920 607.2 920 920 C616.4 920 312.8 920 0 920 C0 616.4 0 312.8 0 0 Z " fill="#FEFEFE" transform="translate(0,0)"/>
<path d="M0 0 C303.6 0 607.2 0 920 0 C920 171.93 920 343.86 920 521 C919.34 520.67 918.68 520.34 918 520 C917.66870117 517.68798828 917.66870117 517.68798828 917.54296875 514.5703125 C917.4852832 513.40040771 917.42759766 512.23050293 917.36816406 511.02514648 C917.30854492 509.73809814 917.24892578 508.4510498 917.1875 507.125 C914.14228032 451.66296482 900.34140853 396.37443331 877 346 C876.34136963 344.5754248 876.34136963 344.5754248 875.66943359 343.12207031 C871.75027103 334.6862685 867.81023587 326.30683981 863.23901367 318.20166016 C862.0280827 316.04990144 860.84812038 313.88392079 859.67578125 311.7109375 C854.60187437 302.37077209 849.17809461 293.43774785 843.15087891 284.68457031 C841.41757413 282.14748866 839.74543499 279.57067463 838.0625 277 C830.83251892 266.18406445 823.10249278 255.87411242 814.59765625 246.03125 C812.27048794 243.31563705 810.03542618 240.55080262 807.8125 237.75 C796.44324029 223.78846742 783.51060515 210.26304535 769.8046875 198.59375 C768.06025047 197.0532082 766.47551494 195.43810531 764.875 193.75 C760.56353228 189.37025112 755.6738305 185.71647566 750.8203125 181.96875 C748.24593391 179.98011857 745.70214215 177.96034095 743.1796875 175.90625 C736.72876811 170.65334668 730.27011154 165.63782676 723.2734375 161.1171875 C720.77776565 159.50304175 718.31008578 157.86443238 715.8515625 156.1953125 C687.03643355 136.65995197 655.98201633 120.15500411 623.13671875 108.5078125 C620.61920313 107.6118832 618.22586418 106.6565652 615.77734375 105.5703125 C579.45482588 89.71315177 537.09944496 83.52843443 498 80 C496.4689563 79.85534302 496.4689563 79.85534302 494.90698242 79.70776367 C483.68001633 78.76540005 472.44680132 78.80052662 461.1875 78.8125 C460.13998566 78.81310425 459.09247131 78.8137085 458.01321411 78.81433105 C442.57246487 78.83852153 427.34624257 79.16440962 412 81 C410.88657227 81.12358887 409.77314453 81.24717773 408.62597656 81.37451172 C353.22271209 87.59663167 297.98116735 102.98156112 248.98510742 129.9296875 C247.03278315 130.98232428 245.06216604 131.98136157 243.07421875 132.96484375 C230.15317179 139.36680785 217.69767412 146.48223388 205.859375 154.71435547 C203.88647561 156.0784952 201.89816023 157.41769767 199.90625 158.75390625 C192.93506384 163.450422 186.2138994 168.26724261 179.77734375 173.6875 C177.14528304 175.87903296 174.46732849 177.98927308 171.76074219 180.08691406 C166.14005653 184.44317124 160.70480394 188.90538109 155.4765625 193.734375 C153.43846744 195.59887837 151.37038868 197.40548522 149.27734375 199.20703125 C144.63521329 203.25860123 140.2818627 207.57102859 135.9375 211.9375 C135.17373047 212.69740234 134.40996094 213.45730469 133.62304688 214.24023438 C129.48623772 218.38412105 125.52298263 222.6134451 121.70385742 227.05102539 C118.20356604 231.05486923 114.49115982 234.86938904 110.81054688 238.70703125 C109.92012695 239.64869141 109.92012695 239.64869141 109.01171875 240.609375 C108.48022217 241.16592773 107.94872559 241.72248047 107.40112305 242.29589844 C105.9192982 244.09815274 104.96190859 245.88119743 104 248 C103.34 248 102.68 248 102 248 C101.773125 248.51820313 101.54625 249.03640625 101.3125 249.5703125 C99.51465895 252.89845873 97.25867548 255.85205853 95 258.875 C93.99817645 260.23138583 92.99688532 261.58816506 91.99609375 262.9453125 C91.23981689 263.96866699 91.23981689 263.96866699 90.46826172 265.01269531 C70.87204657 291.53633869 54.67782227 319.99803932 41 350 C40.62681641 350.8156543 40.25363281 351.63130859 39.86914062 352.47167969 C16.01831872 405.20750261 3.79334293 464.30382934 2 522 C1.34 522.33 0.68 522.66 0 523 C0 350.41 0 177.82 0 0 Z " fill="#FEFEFE" transform="translate(0,0)"/>
<path d="M0 0 C1.54543991 -0.00101212 1.54543991 -0.00101212 3.12210083 -0.00204468 C21.44199705 0.01687809 39.38637547 0.896472 57.5625 3.25 C58.22064697 3.33485657 58.87879395 3.41971313 59.55688477 3.50714111 C96.60951758 8.33079271 133.98602533 16.88887163 168.5625 31.25 C169.83844678 31.76325679 171.11449751 32.27625519 172.390625 32.7890625 C202.61809545 45.07927796 231.41037176 60.19839415 258.30029297 78.69433594 C260.33024537 80.09028421 262.36802944 81.47351993 264.41015625 82.8515625 C270.10016389 86.7105911 275.58905881 90.74246305 280.91015625 95.09765625 C282.88011128 96.6962501 284.86110255 98.26196143 286.87109375 99.80859375 C293.75257088 105.11316484 300.31489239 110.59662801 306.6484375 116.546875 C308.82925459 118.56983133 311.03022124 120.52055313 313.28515625 122.45703125 C318.28546406 126.81278661 322.94827326 131.48962755 327.625 136.1875 C328.48416016 137.04279297 329.34332031 137.89808594 330.22851562 138.77929688 C335.21493274 143.77333266 339.99784435 148.86839728 344.5625 154.25 C345.26789917 155.07286499 345.26789917 155.07286499 345.98754883 155.91235352 C349.20348399 159.67097409 352.38323259 163.46035957 355.5625 167.25 C356.31660156 168.1471875 357.07070313 169.044375 357.84765625 169.96875 C366.39483041 180.2687929 374.71023157 190.88685447 381.73046875 202.296875 C383.16106138 204.60290491 384.62032626 206.87530155 386.11328125 209.140625 C391.91956326 217.96092482 397.37710181 226.89133953 402.42529297 236.16748047 C403.25481473 237.68654888 404.09367287 239.2005298 404.93798828 240.71142578 C437.95197013 300.19695168 456.70258796 369.2546532 459.27270508 437.18969727 C459.12049175 440.50635081 459.12049175 440.50635081 460.5625 443.25 C460.66337212 445.75924153 460.70222032 448.24036384 460.6953125 450.75 C460.69626923 451.50087891 460.69722595 452.25175781 460.69821167 453.02539062 C460.69889338 454.61588627 460.69703972 456.20638467 460.69287109 457.796875 C460.68752267 460.23964655 460.69281634 462.68223421 460.69921875 465.125 C460.69855797 466.66666707 460.6972768 468.20833403 460.6953125 469.75 C460.69733673 470.48541016 460.69936096 471.22082031 460.70144653 471.97851562 C460.67745161 477.13504839 460.67745161 477.13504839 459.5625 478.25 C459.39284633 479.83660415 459.28557282 481.42992018 459.203125 483.0234375 C456.27534122 532.79188384 446.40803622 582.98509552 427.5625 629.25 C427.19656738 630.1570166 426.83063477 631.0640332 426.45361328 631.99853516 C417.2259167 654.74362319 407.02641234 677.69692886 393.74169922 698.40527344 C392.34202506 700.59490862 390.97006502 702.80098964 389.59765625 705.0078125 C384.46167587 713.23939774 379.28603582 721.41036819 373.5625 729.25 C370.93600309 727.99093201 368.53752608 726.63242906 366.15625 724.95703125 C365.50503174 724.49925293 364.85381348 724.04147461 364.18286133 723.56982422 C363.48314209 723.07240723 362.78342285 722.57499023 362.0625 722.0625 C361.32346436 721.53930176 360.58442871 721.01610352 359.82299805 720.47705078 C353.07069323 715.66774895 346.44499511 710.69563461 339.82763672 705.703125 C330.90530686 698.97874767 321.88384719 692.41321911 312.5625 686.25 C313.18828956 682.69844107 314.63776731 680.45807727 316.75 677.5625 C317.3790625 676.6859375 318.008125 675.809375 318.65625 674.90625 C319.2853125 674.0296875 319.914375 673.153125 320.5625 672.25 C321.63382926 670.69354052 322.69692465 669.13136736 323.75 667.5625 C324.19730469 666.89863281 324.64460937 666.23476563 325.10546875 665.55078125 C327.03122086 662.50984829 328.79856817 659.38625791 330.5625 656.25 C331.18958862 655.14289673 331.18958862 655.14289673 331.8293457 654.01342773 C342.12329741 635.75591704 351.46228869 616.9974627 358.5625 597.25 C359.02140625 596.04730469 359.4803125 594.84460938 359.953125 593.60546875 C369.15450055 569.062702 375.46811108 543.68147519 379.5 517.8125 C379.60790863 517.12187469 379.71581726 516.43124939 379.82699585 515.71969604 C380.79034763 509.47338705 381.5625 503.58595284 381.5625 497.25 C370.0125 496.92 358.4625 496.59 346.5625 496.25 C346.5625 471.83 346.5625 447.41 346.5625 422.25 C358.4425 421.92 370.3225 421.59 382.5625 421.25 C382.5625 412.38994317 381.52330532 404.23360491 380.0625 395.5625 C379.93100555 394.77365417 379.79951111 393.98480835 379.66403198 393.17205811 C376.97712832 377.22169207 373.17290386 361.76161808 368.5625 346.25 C368.24603516 345.17927246 367.92957031 344.10854492 367.60351562 343.00537109 C363.50629195 329.25522993 363.50629195 329.25522993 357.9296875 316.05859375 C356.45945817 313.03832264 355.11449085 309.97789369 353.77172852 306.89941406 C342.75915972 281.71128777 329.75561441 257.08789075 313.14086914 235.12036133 C310.97589899 232.2503136 309.12686807 229.48060197 307.5625 226.25 C305.9170622 224.56237149 304.24961423 222.8959651 302.5625 221.25 C301.53436389 219.93824014 300.52165568 218.6130107 299.5625 217.25 C294.58752368 217.40075686 292.41120788 220.06576437 289.1953125 223.4765625 C288.38707031 224.35441406 288.38707031 224.35441406 287.5625 225.25 C284.89583333 227.91666667 282.22916667 230.58333333 279.5625 233.25 C278.7375 234.1575 277.9125 235.065 277.0625 236 C274.5625 238.25 274.5625 238.25 270.5625 238.25 C269.18160767 236.62251976 267.86036393 234.94443347 266.5625 233.25 C265.41556844 232.20940416 264.24468572 231.19494839 263.05859375 230.19921875 C257.91115753 225.75773329 253.15694322 220.95330061 248.375 216.125 C247.49908203 215.24457031 246.62316406 214.36414063 245.72070312 213.45703125 C244.04724357 211.77469056 242.37474346 210.09139476 240.70336914 208.40698242 C238.3292805 206.01502517 235.94768009 203.6308902 233.5625 201.25 C229.22916667 196.91666667 224.89583333 192.58333333 220.5625 188.25 C222.12532982 184.48396131 224.4688475 182.11360849 227.3515625 179.265625 C227.81484955 178.80516785 228.2781366 178.34471069 228.75546265 177.87030029 C230.22815898 176.40874922 231.70767403 174.95432832 233.1875 173.5 C234.19056322 172.50697389 235.19317257 171.51348911 236.1953125 170.51953125 C238.64580835 168.09102059 241.1024667 165.66885325 243.5625 163.25 C242.242298 160.21882913 240.9820328 158.50583112 238.32421875 156.55078125 C237.67509521 156.06810791 237.02597168 155.58543457 236.35717773 155.08813477 C235.66180908 154.58467529 234.96644043 154.08121582 234.25 153.5625 C233.53593994 153.03648193 232.82187988 152.51046387 232.08618164 151.96850586 C226.56678635 147.92332246 220.96901489 143.99688317 215.31640625 140.140625 C213.15238734 138.6549723 211.03949504 137.13278471 208.9375 135.5625 C206.28681762 133.6619943 203.53394523 132.0949534 200.6640625 130.546875 C199.19960693 129.75470581 199.19960693 129.75470581 197.70556641 128.9465332 C196.66835449 128.38667725 195.63114258 127.82682129 194.5625 127.25 C192.43736142 126.09270235 190.31236422 124.93514505 188.1875 123.77734375 C185.9793502 122.58039051 183.77101513 121.38377903 181.5625 120.1875 C180.46421875 119.58873047 179.3659375 118.98996094 178.234375 118.37304688 C142.22188846 98.89472921 102.7635041 87.25483364 62.5625 80.375 C60.69295654 80.05160645 60.69295654 80.05160645 58.78564453 79.72167969 C57.59825684 79.52735352 56.41086914 79.33302734 55.1875 79.1328125 C54.14851562 78.96152832 53.10953125 78.79024414 52.0390625 78.61376953 C47.5696388 78.14611214 43.05632373 78.25 38.5625 78.25 C38.2325 89.47 37.9025 100.69 37.5625 112.25 C34.92927888 113.56661056 32.96695523 113.37710621 30.01806641 113.37939453 C28.85570465 113.38254669 27.6933429 113.38569885 26.49575806 113.38894653 C25.23129852 113.3869223 23.96683899 113.38489807 22.6640625 113.3828125 C20.71335342 113.38424759 20.71335342 113.38424759 18.72323608 113.38571167 C15.96082377 113.38718869 13.19844372 113.3850374 10.43603516 113.38037109 C6.92850928 113.37472972 3.42106088 113.37791678 -0.08646202 113.38394356 C-3.46129297 113.38847712 -6.83610437 113.38527715 -10.2109375 113.3828125 C-12.07726334 113.38584885 -12.07726334 113.38584885 -13.98129272 113.38894653 C-15.17517609 113.38579437 -16.36905945 113.38264221 -17.59912109 113.37939453 C-18.6323349 113.37859894 -19.66554871 113.37780334 -20.73007202 113.37698364 C-25.97626424 113.19729557 -31.20636366 112.68592803 -36.4375 112.25 C-36.7675 101.03 -37.0975 89.81 -37.4375 78.25 C-44.86292693 78.20834919 -44.86292693 78.20834919 -52.0546875 78.9140625 C-53.05951172 79.06327148 -54.06433594 79.21248047 -55.09960938 79.36621094 C-56.15986328 79.53411133 -57.22011719 79.70201172 -58.3125 79.875 C-59.44236328 80.05321289 -60.57222656 80.23142578 -61.73632812 80.41503906 C-83.48999826 83.96457497 -104.51714606 89.34696465 -125.4375 96.25 C-126.37271484 96.55583008 -127.30792969 96.86166016 -128.27148438 97.17675781 C-138.68209422 100.60573838 -148.65417311 104.47164559 -158.48925781 109.31591797 C-160.86658154 110.45572255 -163.27023913 111.53042489 -165.67578125 112.609375 C-181.70041161 119.86833721 -196.909173 128.34982027 -211.4375 138.25 C-212.80683636 139.16604556 -214.17663065 140.08140694 -215.546875 140.99609375 C-222.31117985 145.54213174 -228.95073727 150.2528052 -235.4375 155.1875 C-236.04360107 155.63609375 -236.64970215 156.0846875 -237.27416992 156.546875 C-239.14166175 157.95134509 -239.14166175 157.95134509 -241.4375 160.25 C-241.86752734 164.24275923 -241.86752734 164.24275923 -239.49389648 166.55249023 C-238.60774658 167.37950439 -237.72159668 168.20651855 -236.80859375 169.05859375 C-235.85662109 169.97060547 -234.90464844 170.88261719 -233.92382812 171.82226562 C-232.39877005 173.26023376 -230.8691573 174.6929335 -229.33422852 176.12036133 C-227.85488379 177.50322188 -226.39393315 178.90567787 -224.93359375 180.30859375 C-224.04857178 181.13673584 -223.1635498 181.96487793 -222.25170898 182.81811523 C-220.4375 185.25 -220.4375 185.25 -220.22387695 187.60180664 C-222.10673556 191.71030941 -225.14182762 194.44276636 -228.359375 197.5625 C-229.05637512 198.25384033 -229.75337524 198.94518066 -230.47149658 199.6574707 C-232.70094154 201.86455581 -234.94386194 204.05735371 -237.1875 206.25 C-238.68320727 207.72563501 -240.17800962 209.20218787 -241.671875 210.6796875 C-244.42509036 213.40027363 -247.18342057 216.11542959 -249.94824219 218.82421875 C-253.74680066 222.54810563 -257.51218324 226.30135593 -261.2265625 230.109375 C-262.17184983 231.07294136 -263.11716246 232.0364829 -264.0625 233 C-264.53945313 233.49371094 -265.01640625 233.98742187 -265.5078125 234.49609375 C-267.81356524 236.83387083 -269.27342819 238.1953094 -272.4375 239.25 C-275.77083333 235.91666667 -279.10416667 232.58333333 -282.4375 229.25 C-283.32179688 228.37988281 -284.20609375 227.50976562 -285.1171875 226.61328125 C-287.4375 224.25 -287.4375 224.25 -289.875 221.125 C-292.54729369 218.12681683 -294.76501004 216.78732138 -298.4375 215.25 C-298.69789063 215.81332031 -298.95828125 216.37664062 -299.2265625 216.95703125 C-300.55987817 219.48172898 -302.10763979 221.6463693 -303.8125 223.9375 C-317.16007704 241.43563398 -317.16007704 241.43563398 -328.4375 260.25 C-329.0975 260.25 -329.7575 260.25 -330.4375 260.25 C-330.52257812 260.93191406 -330.60765625 261.61382812 -330.6953125 262.31640625 C-331.62687753 265.99853959 -333.39167808 268.95423909 -335.3125 272.1875 C-357.46630107 310.75252106 -372.37249625 353.26886696 -379.3125 397.1875 C-379.42218109 397.87417755 -379.53186218 398.5608551 -379.64486694 399.26834106 C-380.83000937 406.77988182 -381.4375 413.5799871 -381.4375 421.25 C-369.5575 421.58 -357.6775 421.91 -345.4375 422.25 C-345.4375 446.67 -345.4375 471.09 -345.4375 496.25 C-356.9875 496.58 -368.5375 496.91 -380.4375 497.25 C-378.22450234 528.23196728 -371.00328184 558.08616743 -361.25 587.5 C-360.84628174 588.71872803 -360.44256348 589.93745605 -360.02661133 591.19311523 C-357.56226656 598.43404816 -354.70021608 605.3376017 -351.4375 612.25 C-350.52565127 614.26818093 -349.61690788 616.28776718 -348.7109375 618.30859375 C-340.15797154 637.19682214 -331.01076271 655.66187723 -319.046875 672.65625 C-318.63518066 673.242854 -318.22348633 673.82945801 -317.79931641 674.43383789 C-316.62711127 676.09588872 -315.44280217 677.74938359 -314.2578125 679.40234375 C-312.70321132 681.83432714 -311.85741807 683.43925808 -311.4375 686.25 C-312.56671875 687.01570312 -312.56671875 687.01570312 -313.71875 687.796875 C-320.65279689 692.54299448 -327.43028045 697.44926138 -334.13183594 702.51782227 C-340.015896 706.95887331 -345.97905453 711.28329223 -351.97363281 715.57373047 C-355.40325053 718.0338476 -358.80728204 720.51085446 -362.13671875 723.10546875 C-362.96671387 723.74899292 -362.96671387 723.74899292 -363.81347656 724.40551758 C-365.26657518 725.5403249 -366.70987773 726.68764528 -368.15234375 727.8359375 C-368.90644531 728.30257812 -369.66054688 728.76921875 -370.4375 729.25 C-374.26976196 727.97257935 -374.70503319 726.60518017 -376.75 723.1875 C-378.86553397 719.7342019 -380.98970639 716.42750323 -383.5 713.25 C-386.35748305 709.52252211 -388.51585915 705.58654037 -390.703125 701.4375 C-391.9404653 699.16346917 -393.20107455 696.95701678 -394.546875 694.75 C-406.22223257 675.57883787 -416.33343974 655.1841674 -424.4375 634.25 C-424.82357422 633.25742187 -425.20964844 632.26484375 -425.60742188 631.2421875 C-444.41070316 582.54726248 -455.91858283 531.82335493 -458.09692383 479.61450195 C-457.95009199 476.13740993 -457.95009199 476.13740993 -459.4375 473.25 C-459.53743532 471.1894469 -459.56830906 469.1254741 -459.5703125 467.0625 C-459.57160156 465.80695313 -459.57289063 464.55140625 -459.57421875 463.2578125 C-459.57212402 462.60071289 -459.5700293 461.94361328 -459.56787109 461.26660156 C-459.56252234 459.25838665 -459.56781691 457.25039541 -459.57421875 455.2421875 C-459.57292969 453.98664063 -459.57164062 452.73109375 -459.5703125 451.4375 C-459.56918457 450.27605469 -459.56805664 449.11460937 -459.56689453 447.91796875 C-459.4375 445.25 -459.4375 445.25 -458.4375 444.25 C-458.25514519 442.22790046 -458.13653845 440.20002306 -458.04296875 438.171875 C-457.97682373 436.88039551 -457.91067871 435.58891602 -457.8425293 434.25830078 C-457.80767426 433.56512756 -457.77281921 432.87195435 -457.73690796 432.15777588 C-455.3367234 385.87813321 -445.5101198 340.64941496 -429.4375 297.25 C-428.93549072 295.8892334 -428.93549072 295.8892334 -428.42333984 294.50097656 C-412.85504614 252.8189059 -390.71331357 214.36476368 -363.79003906 179.06982422 C-362.38045353 177.1732447 -361.04767822 175.2335512 -359.7109375 173.28515625 C-358.96070313 172.28355469 -358.21046875 171.28195313 -357.4375 170.25 C-356.7775 170.25 -356.1175 170.25 -355.4375 170.25 C-355.18355469 169.50363281 -354.92960937 168.75726563 -354.66796875 167.98828125 C-353.36050928 165.0786651 -352.06540778 163.598244 -349.75 161.4375 C-347.1493264 158.93417782 -344.65724507 156.43198533 -342.3125 153.6875 C-328.58635704 137.79244055 -313.97755233 122.22644521 -297.4375 109.25 C-295.49552254 107.6303535 -293.55820514 106.0051071 -291.625 104.375 C-279.98141227 94.67950288 -268.0596337 85.64016276 -255.4375 77.25 C-254.73157715 76.78029785 -254.0256543 76.3105957 -253.29833984 75.82666016 C-241.17159859 67.79238591 -228.88387718 60.32129719 -215.796875 53.93359375 C-213.23819968 52.65128089 -210.71884066 51.33487052 -208.203125 49.97265625 C-179.86784007 34.65450221 -149.47700304 23.6961869 -118.4375 15.25 C-117.43638184 14.97704102 -116.43526367 14.70408203 -115.40380859 14.42285156 C-90.46505855 7.75438394 -64.21022863 3.0752128 -38.4375 1.25 C-37.35525146 1.1660498 -36.27300293 1.08209961 -35.15795898 0.99560547 C-23.44103676 0.1614006 -11.743974 0.00697631 0 0 Z " fill="#88C149" transform="translate(459.4375,77.75)"/>
<path d="M0 0 C-1.31754128 2.74576516 -2.77041789 5.27403338 -4.46875 7.80078125 C-4.95279297 8.52370361 -5.43683594 9.24662598 -5.93554688 9.99145508 C-6.45181641 10.7573999 -6.96808594 11.52334473 -7.5 12.3125 C-8.58345018 13.92700493 -9.66678154 15.54158959 -10.75 17.15625 C-11.29398438 17.96578125 -11.83796875 18.7753125 -12.3984375 19.609375 C-13.89877115 21.84889743 -15.38932341 24.09448545 -16.875 26.34375 C-17.54112305 27.3505481 -17.54112305 27.3505481 -18.22070312 28.37768555 C-19.04917298 29.63066716 -19.87609739 30.88467255 -20.70117188 32.13989258 C-22.40939332 34.71645993 -24.1565362 37.19479412 -26.09375 39.60546875 C-27.9835945 41.97939227 -29.44591898 44.39705837 -31 47 C-32.04998702 48.5877731 -33.11304867 50.16695999 -34.1875 51.73828125 C-35.10354004 53.07995361 -35.10354004 53.07995361 -36.03808594 54.44873047 C-37.0092334 55.86629639 -37.0092334 55.86629639 -38 57.3125 C-38.67063477 58.2936377 -39.34126953 59.27477539 -40.03222656 60.28564453 C-46.51870775 69.77076869 -53.01587096 79.24886702 -59.55859375 88.6953125 C-65.08039347 96.68009557 -70.50003629 104.72808072 -75.875 112.8125 C-80.96301083 120.46295764 -86.07110104 128.09819733 -91.25 135.6875 C-91.7744873 136.45876221 -92.29897461 137.23002441 -92.83935547 138.0246582 C-94.85104496 140.96301804 -96.85512129 143.82265773 -99.109375 146.58203125 C-100.99439058 148.99282597 -102.46338135 151.49767529 -103.94580078 154.16992188 C-105.76056791 157.32033744 -107.85645758 160.27153659 -109.9375 163.25 C-110.91046571 164.65343134 -111.88310765 166.05708719 -112.85546875 167.4609375 C-113.36513184 168.19538086 -113.87479492 168.92982422 -114.39990234 169.68652344 C-117.76234479 174.54805908 -121.08686096 179.43571317 -124.41674805 184.31958008 C-127.81601827 189.29691768 -131.26391865 194.22876034 -134.828125 199.08984375 C-136.80706049 202.31550861 -137.12546263 205.29061073 -136.95703125 209.01953125 C-136.29936818 229.69359301 -141.91760412 247.42236904 -156 263 C-156.62648438 263.70769531 -157.25296875 264.41539062 -157.8984375 265.14453125 C-171.0049259 279.13370152 -190.45918157 286.81435928 -209.44335938 287.47485352 C-231.38018989 287.69061875 -250.52550759 279.88819448 -266.625 264.875 C-282.74543593 248.06121198 -287.69005586 227.88768961 -287.3046875 205.1875 C-286.628457 186.67778577 -277.84555627 169.78745508 -264.8125 156.82421875 C-251.79533133 144.82401638 -234.04031374 135.72997368 -215.91162109 136.03515625 C-214.51132371 136.11086564 -213.11117265 136.18933009 -211.71118164 136.27050781 C-203.60219432 136.76757736 -203.60219432 136.76757736 -196.5625 133.25 C-195.89089844 132.60804688 -195.21929687 131.96609375 -194.52734375 131.3046875 C-191.1550152 128.22945745 -187.44339868 125.86009229 -183.625 123.375 C-182.04599979 122.33335674 -180.46789235 121.29035906 -178.890625 120.24609375 C-177.6830957 119.44727783 -177.6830957 119.44727783 -176.45117188 118.63232422 C-172.40182021 115.93571414 -168.38729942 113.18882608 -164.375 110.4375 C-163.1842688 109.62140259 -163.1842688 109.62140259 -161.96948242 108.78881836 C-158.26890166 106.2500081 -154.57206577 103.70584236 -150.87890625 101.15625 C-149.5652078 100.24984979 -148.25140716 99.34359765 -146.9375 98.4375 C-146.29554688 97.99470703 -145.65359375 97.55191406 -144.9921875 97.09570312 C-139.98874796 93.65521426 -134.9370221 90.29100288 -129.875 86.9375 C-124.51285817 83.38375343 -119.2117774 79.77088316 -114 76 C-106.67929878 70.70989674 -99.16585545 65.72628784 -91.63378906 60.74365234 C-86.58348079 57.40018723 -81.54179741 54.04377894 -76.5 50.6875 C-75.5095166 50.02991699 -74.5190332 49.37233398 -73.49853516 48.69482422 C-68.11120041 45.10960683 -62.77486666 41.46462422 -57.48339844 37.73950195 C-53.14358048 34.69966682 -48.75693072 31.72864908 -44.375 28.75 C-37.65918223 24.17752833 -30.9455471 19.60211994 -24.25 15 C-23.28429077 14.33629395 -23.28429077 14.33629395 -22.29907227 13.65917969 C-17.88080747 10.61768344 -13.48600459 7.54423062 -9.11328125 4.4375 C-2.58967391 0 -2.58967391 0 0 0 Z " fill="#88C149" transform="translate(672,325)"/>
<path d="M0 0 C-1.29630899 2.69673919 -2.7137343 5.18965614 -4.3828125 7.671875 C-4.82753906 8.33574219 -5.27226563 8.99960937 -5.73046875 9.68359375 C-6.19066406 10.36550781 -6.65085937 11.04742187 -7.125 11.75 C-7.59292969 12.44738281 -8.06085937 13.14476562 -8.54296875 13.86328125 C-9.69322295 15.57692526 -10.84633086 17.28865316 -12 19 C-12.66 18.67 -13.32 18.34 -14 18 C-13.67 15.69 -13.34 13.38 -13 11 C-14.65 11.33 -16.3 11.66 -18 12 C-13.92779659 7.36611336 -6.379187 0 0 0 Z " fill="#96C25E" transform="translate(672,325)"/>
<path d="M0 0 C0.33 0 0.66 0 1 0 C1.125 2.875 1.125 2.875 1 6 C0.34 6.66 -0.32 7.32 -1 8 C-1.64767793 10.57061311 -1.64767793 10.57061311 -2 13 C-1.34 13.33 -0.68 13.66 0 14 C-0.99 14.66 -1.98 15.32 -3 16 C-3.1938914 18.03585975 -3.38660131 20.07188182 -3.5625 22.109375 C-4 24 -4 24 -6.375 25.6875 C-7.24125 26.120625 -8.1075 26.55375 -9 27 C-10.80796103 29.56610666 -10.80796103 29.56610666 -12 32 C-13 30 -13 30 -12.35083008 27.98803711 C-11.99400146 27.1760083 -11.63717285 26.36397949 -11.26953125 25.52734375 C-10.87830078 24.62693359 -10.48707031 23.72652344 -10.08398438 22.79882812 C-9.66439453 21.85458984 -9.24480469 20.91035156 -8.8125 19.9375 C-8.41224609 19.02033203 -8.01199219 18.10316406 -7.59960938 17.15820312 C-6.40869979 14.43474539 -5.2065377 11.71656641 -4 9 C-3.60603027 8.11199707 -3.21206055 7.22399414 -2.80615234 6.30908203 C-1.87200566 4.20550072 -0.93669011 2.10244971 0 0 Z " fill="#92C152" transform="translate(46,337)"/>
<path d="M0 0 C2 1 2 1 3.0703125 4.0546875 C3.41835938 5.31539062 3.76640625 6.57609375 4.125 7.875 C4.47820313 9.13054688 4.83140625 10.38609375 5.1953125 11.6796875 C6 15 6 15 6 18 C6.99 17.67 7.98 17.34 9 17 C10.04585393 20.39902527 10 23.46144479 10 27 C10.29714023 29.00569659 10.62061383 31.00822259 11 33 C8.33821779 30.33821779 7.7898145 27.82020322 6.6171875 24.2421875 C6.39805695 23.57913605 6.17892639 22.91608459 5.95315552 22.23294067 C5.25478282 20.11543826 4.56480758 17.99530624 3.875 15.875 C3.40289435 14.438621 2.93024467 13.00242068 2.45703125 11.56640625 C1.29836825 8.04632218 0.14722068 4.52383212 -1 1 C-0.67 0.67 -0.34 0.34 0 0 Z " fill="#91BE5A" transform="translate(22,671)"/>
<path d="M0 0 C1.24330078 0.24363281 1.24330078 0.24363281 2.51171875 0.4921875 C6.30109298 1.04383213 9.99393648 1.14999655 13.8125 1.125 C14.5152002 1.1237915 15.21790039 1.12258301 15.94189453 1.12133789 C19.78898604 1.0924958 23.55813815 0.91538352 27.375 0.4375 C31 0 31 0 33 1 C32.67 1.99 32.34 2.98 32 4 C20.78 3.67 9.56 3.34 -2 3 C-1.34 2.67 -0.68 2.34 0 2 C0 1.34 0 0.68 0 0 Z " fill="#90BD56" transform="translate(810,571)"/>
<path d="M0 0 C4.35699326 2.3684583 7.73189628 5.31572857 11.3125 8.6875 C11.86228516 9.19861328 12.41207031 9.70972656 12.97851562 10.23632812 C14.3226638 11.48697034 15.661846 12.74294624 17 14 C14 15 14 15 11 15 C11.33 13.68 11.66 12.36 12 11 C11.34 11 10.68 11 10 11 C9.67 10.34 9.34 9.68 9 9 C7.35 9 5.7 9 4 9 C4.33 7.68 4.66 6.36 5 5 C4.34 5 3.68 5 3 5 C3 5.66 3 6.32 3 7 C2.34 7 1.68 7 1 7 C0.67 4.69 0.34 2.38 0 0 Z " fill="#92C157" transform="translate(752,183)"/>
<path d="M0 0 C3.96 0 7.92 0 12 0 C9 3 9 3 5.8125 3.1875 C4.4203125 3.0946875 4.4203125 3.0946875 3 3 C2.0699111 5.7902667 1.81301231 7.76529542 1.68359375 10.66796875 C1.64169922 11.56064453 1.59980469 12.45332031 1.55664062 13.37304688 C1.51732422 14.30181641 1.47800781 15.23058594 1.4375 16.1875 C1.39431641 17.12787109 1.35113281 18.06824219 1.30664062 19.03710938 C1.20061335 21.35792854 1.09854971 23.67885325 1 26 C0.67 26 0.34 26 0 26 C0 17.42 0 8.84 0 0 Z " fill="#8FBD50" transform="translate(806,500)"/>
<path d="M0 0 C-4.54373347 2.93353057 -9.37121892 5.03080826 -14.3125 7.1875 C-15.14845703 7.55552734 -15.98441406 7.92355469 -16.84570312 8.30273438 C-18.89585062 9.20479927 -20.94728786 10.10379027 -23 11 C-23.33 10.34 -23.66 9.68 -24 9 C-20.90643244 4.96491187 -18.12741519 4.42762088 -13.3828125 3.57421875 C-10.17732634 2.80174914 -7.56140279 1.35777158 -4.7265625 -0.29296875 C-3 -1 -3 -1 0 0 Z " fill="#92C05E" transform="translate(315,180)"/>
<path d="M0 0 C0.66 0.33 1.32 0.66 2 1 C2.125 3.875 2.125 3.875 2 7 C1.34 7.66 0.68 8.32 0 9 C-0.33 9 -0.66 9 -1 9 C-1.99 14.28 -2.98 19.56 -4 25 C-5.07482925 20.70068298 -4.82507084 17.99031045 -4.25 13.625 C-4.09015625 12.33851563 -3.9303125 11.05203125 -3.765625 9.7265625 C-3.00692949 6.03372825 -1.84242444 3.26979722 0 0 Z " fill="#8FC053" transform="translate(844,575)"/>
<path d="M0 0 C0.33 0.99 0.66 1.98 1 3 C1.598125 2.690625 2.19625 2.38125 2.8125 2.0625 C5 1 5 1 8 0 C7.38461538 5.53846154 7.38461538 5.53846154 5.4375 7.875 C4.7259375 8.431875 4.7259375 8.431875 4 9 C2.02 7.68 0.04 6.36 -2 5 C-1.125 1.125 -1.125 1.125 0 0 Z " fill="#92C259" transform="translate(774,759)"/>
<path d="M0 0 C0.66 0 1.32 0 2 0 C2 0.66 2 1.32 2 2 C1 3 0 4 -1 5 C-1 5.66 -1 6.32 -1 7 C-2.2684375 7.0928125 -2.2684375 7.0928125 -3.5625 7.1875 C-7.41787467 8.09877038 -9.3953674 9.54970804 -12.38671875 12.0390625 C-12.91910156 12.35617187 -13.45148437 12.67328125 -14 13 C-14.99 12.67 -15.98 12.34 -17 12 C-16.52054932 11.67201416 -16.04109863 11.34402832 -15.54711914 11.00610352 C-13.38482365 9.52600294 -11.22364932 8.04427358 -9.0625 6.5625 C-8.30775391 6.04623047 -7.55300781 5.52996094 -6.77539062 4.99804688 C-6.05673828 4.50498047 -5.33808594 4.01191406 -4.59765625 3.50390625 C-3.93258057 3.04830322 -3.26750488 2.5927002 -2.58227539 2.12329102 C-1.03649044 1.09224205 -1.03649044 1.09224205 0 0 Z " fill="#96C15F" transform="translate(584,383)"/>
<path d="M0 0 C0.33 0 0.66 0 1 0 C1 1.98 1 3.96 1 6 C-1.35658397 7.17829199 -2.52573236 7.04414372 -5.1328125 6.87890625 C-5.93847656 6.83056641 -6.74414062 6.78222656 -7.57421875 6.73242188 C-8.41597656 6.67634766 -9.25773437 6.62027344 -10.125 6.5625 C-11.39923828 6.48418945 -11.39923828 6.48418945 -12.69921875 6.40429688 C-14.79979124 6.27448622 -16.89994191 6.1378826 -19 6 C-18.67 5.34 -18.34 4.68 -18 4 C-12.06 4 -6.12 4 0 4 C0 2.68 0 1.36 0 0 Z " fill="#8DBE52" transform="translate(496,184)"/>
<path d="M0 0 C1.51311929 3.02623858 2.36579264 5.01390901 3.0703125 8.1875 C3.24433594 8.96867187 3.41835938 9.74984375 3.59765625 10.5546875 C3.77167969 11.36164063 3.94570313 12.16859375 4.125 13 C4.30675781 13.80695313 4.48851562 14.61390625 4.67578125 15.4453125 C5.4830791 19.12367715 6 22.19554474 6 26 C5.34 26 4.68 26 4 26 C4 23.69 4 21.38 4 19 C3.34 19 2.68 19 2 19 C2 16.03 2 13.06 2 10 C1.34 9.67 0.68 9.34 0 9 C0 6.03 0 3.06 0 0 Z " fill="#92BF58" transform="translate(904,422)"/>
<path d="M0 0 C-0.99 1.485 -0.99 1.485 -2 3 C-2.66 3 -3.32 3 -4 3 C-4.33 3.99 -4.66 4.98 -5 6 C-8.3 5.34 -11.6 4.68 -15 4 C-12.19836511 2.13224341 -10.11958197 1.27321694 -6.9375 0.3125 C-6.05964844 0.04050781 -5.18179687 -0.23148437 -4.27734375 -0.51171875 C-2 -1 -2 -1 0 0 Z " fill="#8FBD55" transform="translate(329,98)"/>
<path d="M0 0 C0.33 0 0.66 0 1 0 C1.05455703 2.97941998 1.09393851 5.95781531 1.125 8.9375 C1.15013672 10.18370117 1.15013672 10.18370117 1.17578125 11.45507812 C1.22107288 17.27505267 0.4456695 22.3596123 -1 28 C-1.33 28 -1.66 28 -2 28 C-2.02688151 26.35425434 -2.04634123 24.70838587 -2.0625 23.0625 C-2.07410156 22.14597656 -2.08570313 21.22945312 -2.09765625 20.28515625 C-2 18 -2 18 -1 17 C-0.76298761 14.14122091 -0.57780818 11.30116703 -0.4375 8.4375 C-0.39431641 7.63119141 -0.35113281 6.82488281 -0.30664062 5.99414062 C-0.20024738 3.99631195 -0.09959112 1.9981793 0 0 Z " fill="#90BF54" transform="translate(534,530)"/>
<path d="M0 0 C0.33 0.99 0.66 1.98 1 3 C-2.75 6 -2.75 6 -5 6 C-5.20625 6.804375 -5.4125 7.60875 -5.625 8.4375 C-6.07875 9.283125 -6.5325 10.12875 -7 11 C-10.125 11.8125 -10.125 11.8125 -13 12 C-8.87675353 7.74790208 -4.48717034 3.86364295 0 0 Z " fill="#95C05D" transform="translate(162,187)"/>
<path d="M0 0 C3.63 1.98 7.26 3.96 11 6 C7.8035914 7.06546953 5.34252724 7.07427838 2 7 C2 6.34 2 5.68 2 5 C0.54166642 3.37485532 0.54166642 3.37485532 -1 2 C-0.67 1.34 -0.34 0.68 0 0 Z " fill="#91C057" transform="translate(686,137)"/>
<path d="M0 0 C-6.75 3 -6.75 3 -9 3 C-9 4.65 -9 6.3 -9 8 C-9.99 8 -10.98 8 -12 8 C-11.67 7.34 -11.34 6.68 -11 6 C-11.99 6.33 -12.98 6.66 -14 7 C-14.33 6.01 -14.66 5.02 -15 4 C-12.87875034 3.13656176 -10.75286928 2.28449352 -8.625 1.4375 C-6.84996094 0.72400391 -6.84996094 0.72400391 -5.0390625 -0.00390625 C-2 -1 -2 -1 0 0 Z " fill="#92BE59" transform="translate(313,103)"/>
<path d="M0 0 C2.31 0.66 4.62 1.32 7 2 C2.375 6.875 2.375 6.875 -1 8 C-1.125 2.25 -1.125 2.25 0 0 Z " fill="#90C254" transform="translate(109,784)"/>
<path d="M0 0 C0.33 0 0.66 0 1 0 C0.5140207 7.3620694 0.02325928 14.69100518 -1 22 C-1.33 22 -1.66 22 -2 22 C-3.29382821 13.94085318 -2.64122886 7.71477583 0 0 Z " fill="#90BE53" transform="translate(916,577)"/>
<path d="M0 0 C0.66 0.66 1.32 1.32 2 2 C1.625 4.625 1.625 4.625 1 7 C0.34 7 -0.32 7 -1 7 C-1 6.34 -1 5.68 -1 5 C-1.928125 5.515625 -2.85625 6.03125 -3.8125 6.5625 C-7 8 -7 8 -10 7 C-6.7 4.69 -3.4 2.38 0 0 Z " fill="#91C258" transform="translate(596,375)"/>
<path d="M0 0 C2.97 0.495 2.97 0.495 6 1 C4.68 4.63 3.36 8.26 2 12 C1.67 12 1.34 12 1 12 C0.45533613 7.915021 0 4.1274515 0 0 Z " fill="#91BF56" transform="translate(882,703)"/>
<path d="M0 0 C-4.105466 3.97185616 -7.02968261 6.70876501 -13 7 C-4.84931507 -1.61643836 -4.84931507 -1.61643836 0 0 Z " fill="#91C05E" transform="translate(426,471)"/>
<path d="M0 0 C6.57142857 5.14285714 6.57142857 5.14285714 8 9 C7.01 9.33 6.02 9.66 5 10 C4.34 9.34 3.68 8.68 3 8 C2.34 7.67 1.68 7.34 1 7 C0.38812962 4.61370553 0 2.46459429 0 0 Z " fill="#90C155" transform="translate(801,230)"/>
<path d="M0 0 C0.97110486 3.02121511 1.13617383 5.00463263 0 8 C-0.99 8.495 -0.99 8.495 -2 9 C-3.13350534 11.01669827 -3.13350534 11.01669827 -4 13 C-4.66 13 -5.32 13 -6 13 C-4.58707905 8.1725201 -2.57025846 4.2837641 0 0 Z " fill="#94BF58" transform="translate(397,494)"/>
<path d="M0 0 C0.33 0 0.66 0 1 0 C1.19658808 1.41543415 1.38187546 2.83244031 1.5625 4.25 C1.66691406 5.03890625 1.77132813 5.8278125 1.87890625 6.640625 C2.00139477 9.02717551 1.63684836 10.71678069 1 13 C1 13.99 1 14.98 1 16 C0.34 16 -0.32 16 -1 16 C-2.24327778 10.15659442 -1.57300962 5.73303505 0 0 Z " fill="#92C052" transform="translate(12,435)"/>
<path d="M0 0 C1.15242188 0.11085937 2.30484375 0.22171875 3.4921875 0.3359375 C4.36101562 0.43132812 5.22984375 0.52671875 6.125 0.625 C6.125 0.955 6.125 1.285 6.125 1.625 C-3.28 2.615 -3.28 2.615 -12.875 3.625 C-12.875 2.965 -12.875 2.305 -12.875 1.625 C-8.28267665 -0.20355428 -4.90141732 -0.50014462 0 0 Z " fill="#91BE58" transform="translate(406.875,154.375)"/>
<path d="M0 0 C2.00993705 3.01490557 2.72623341 5.2149927 3.625 8.6875 C3.88539062 9.68136719 4.14578125 10.67523437 4.4140625 11.69921875 C4.60742188 12.45847656 4.80078125 13.21773437 5 14 C3.68 13.67 2.36 13.34 1 13 C-0.10228696 8.59085217 -0.07654536 4.51617599 0 0 Z " fill="#91C052" transform="translate(97,664)"/>
<path d="M0 0 C1.32 0.66 2.64 1.32 4 2 C4 2.99 4 3.98 4 5 C4.804375 5.2475 5.60875 5.495 6.4375 5.75 C9 7 9 7 9.8125 9.125 C9.874375 9.74375 9.93625 10.3625 10 11 C5.32751069 8.17477391 2.34003602 5.32239956 -1 1 C-0.67 0.67 -0.34 0.34 0 0 Z " fill="#96C063" transform="translate(406,587)"/>
<path d="M0 0 C1.32 0.66 2.64 1.32 4 2 C3.49339844 2.68835938 3.49339844 2.68835938 2.9765625 3.390625 C-0.36308951 7.98192426 -0.36308951 7.98192426 -3 13 C-3.6875 11.3125 -3.6875 11.3125 -4 9 C-2.625 6.5 -2.625 6.5 -1 4 C-0.30420546 1.80869466 -0.30420546 1.80869466 0 0 Z " fill="#91C157" transform="translate(572,465)"/>
<path d="M0 0 C0.33 0 0.66 0 1 0 C0.979375 1.051875 0.95875 2.10375 0.9375 3.1875 C0.98896802 6.32704904 1.26517187 8.96883396 2 12 C1.34 12 0.68 12 0 12 C-1.32 8.7 -2.64 5.4 -4 2 C-3.34 1.67 -2.68 1.34 -2 1 C-1.67 1.66 -1.34 2.32 -1 3 C-0.67 2.01 -0.34 1.02 0 0 Z " fill="#92C15A" transform="translate(46,725)"/>
<path d="M0 0 C1.32 0.33 2.64 0.66 4 1 C3.71572583 2.58467728 3.42225182 4.1677057 3.125 5.75 C2.88136719 7.07257812 2.88136719 7.07257812 2.6328125 8.421875 C2 11 2 11 0 15 C0 10.05 0 5.1 0 0 Z " fill="#92C059" transform="translate(898,658)"/>
<path d="M0 0 C-0.33 1.32 -0.66 2.64 -1 4 C-1.928125 3.979375 -2.85625 3.95875 -3.8125 3.9375 C-7.02286011 3.84230396 -7.02286011 3.84230396 -10 5 C-12.1875 4.0625 -12.1875 4.0625 -14 3 C-12.23050388 2.49528803 -10.45934777 1.99639315 -8.6875 1.5 C-7.70136719 1.2215625 -6.71523438 0.943125 -5.69921875 0.65625 C-3 0 -3 0 0 0 Z " fill="#90C056" transform="translate(351,91)"/>
<path d="M0 0 C2.62559844 0.3080144 5.25039806 0.62120182 7.875 0.9375 C8.99455078 1.06801758 8.99455078 1.06801758 10.13671875 1.20117188 C15.7734375 1.88671875 15.7734375 1.88671875 18 3 C17.67 3.66 17.34 4.32 17 5 C16.34 4.67 15.68 4.34 15 4 C14.67 4.66 14.34 5.32 14 6 C13.67 5.34 13.34 4.68 13 4 C10.66255706 3.53193355 8.30260921 3.17330206 5.9375 2.875 C4.64714844 2.70742187 3.35679687 2.53984375 2.02734375 2.3671875 C1.02832031 2.24601562 0.02929688 2.12484375 -1 2 C-0.67 1.34 -0.34 0.68 0 0 Z " fill="#91BE58" transform="translate(522,82)"/>
<path d="M0 0 C0.33 0 0.66 0 1 0 C1.05418326 2.08304538 1.09287551 4.16649768 1.125 6.25 C1.14820313 7.41015625 1.17140625 8.5703125 1.1953125 9.765625 C1.0103949 12.82786046 0.60823023 14.44202751 -1 17 C-2.0748291 10.72532201 -1.88341198 6.09339169 0 0 Z " fill="#90BD51" transform="translate(917,559)"/>
<path d="M0 0 C2.61577816 5.23155631 1.6207859 6.59738034 0 12 C-1.32 12.33 -2.64 12.66 -4 13 C-2.68 8.71 -1.36 4.42 0 0 Z " fill="#96C25B" transform="translate(28,380)"/>
<path d="M0 0 C0.33 1.32 0.66 2.64 1 4 C-0.9375 6.25 -0.9375 6.25 -3 8 C-5 7 -5 7 -7 5 C-4.69 3.35 -2.38 1.7 0 0 Z " fill="#90C15C" transform="translate(608,367)"/>
<path d="M0 0 C0.33 0 0.66 0 1 0 C0.73672346 6.45027515 -1.50664023 9.47915791 -6 14 C-6 10.27792613 -4.82035432 8.53604411 -3 5.3125 C-2.443125 4.31863281 -1.88625 3.32476563 -1.3125 2.30078125 C-0.879375 1.54152344 -0.44625 0.78226563 0 0 Z " fill="#97BF61" transform="translate(796,723)"/>
<path d="M0 0 C2.04296875 0.4609375 2.04296875 0.4609375 4.1875 1.375 C4.90292969 1.67148438 5.61835938 1.96796875 6.35546875 2.2734375 C7.16951172 2.63308594 7.16951172 2.63308594 8 3 C5.08291076 4.98362069 3.87619096 4.9876191 0.25 4.625 C-0.8225 4.41875 -1.895 4.2125 -3 4 C-3 3.34 -3 2.68 -3 2 C-2.01 1.34 -1.02 0.68 0 0 Z " fill="#90C256" transform="translate(436,186)"/>
<path d="M0 0 C4.29 0.99 8.58 1.98 13 3 C13 3.33 13 3.66 13 4 C11.54263913 4.19491452 10.08405407 4.38069358 8.625 4.5625 C7.81289063 4.66691406 7.00078125 4.77132812 6.1640625 4.87890625 C4 5 4 5 2 4 C2 3.34 2 2.68 2 2 C1.34 2 0.68 2 0 2 C0 1.34 0 0.68 0 0 Z " fill="#93C259" transform="translate(566,90)"/>
<path d="M0 0 C0.33 0 0.66 0 1 0 C1.33 2.31 1.66 4.62 2 7 C5.63 7.33 9.26 7.66 13 8 C13 8.33 13 8.66 13 9 C7.06 9.495 7.06 9.495 1 10 C-1.42857143 3.71428571 -1.42857143 3.71428571 0 0 Z " fill="#91BF53" transform="translate(76,492)"/>
<path d="M0 0 C0.33 0.66 0.66 1.32 1 2 C0.34 2.66 -0.32 3.32 -1 4 C-1 5.32 -1 6.64 -1 8 C-4 7 -4 7 -6 5 C-6 5.66 -6 6.32 -6 7 C-7.32 6.67 -8.64 6.34 -10 6 C-6.7 4.02 -3.4 2.04 0 0 Z " fill="#95C35A" transform="translate(503,439)"/>
<path d="M0 0 C4 1 4 1 5.8125 3.8125 C7 7 7 7 6 11 C4.02 7.37 2.04 3.74 0 0 Z " fill="#94C163" transform="translate(65,772)"/>
<path d="M0 0 C0.66 0 1.32 0 2 0 C2 0.66 2 1.32 2 2 C2.66 2.33 3.32 2.66 4 3 C2.35 5.64 0.7 8.28 -1 11 C-2.09224664 6.63101344 -2.00529074 4.01058148 0 0 Z " fill="#94C35E" transform="translate(523,570)"/>
<path d="M0 0 C1.12894876 0.93274109 2.25300876 1.87140122 3.375 2.8125 C4.00148438 3.33457031 4.62796875 3.85664063 5.2734375 4.39453125 C7 6 7 6 9 9 C7.02 9 5.04 9 3 9 C3.33 7.68 3.66 6.36 4 5 C3.34 5 2.68 5 2 5 C0.375 3 0.375 3 -1 1 C-0.67 0.67 -0.34 0.34 0 0 Z " fill="#95C563" transform="translate(760,189)"/>
<path d="M0 0 C0.99 0.33 1.98 0.66 3 1 C3.73046875 2.84765625 3.73046875 2.84765625 4.1875 5.0625 C4.34605469 5.79597656 4.50460937 6.52945312 4.66796875 7.28515625 C4.83232422 8.13400391 4.83232422 8.13400391 5 9 C4.01 9.66 3.02 10.32 2 11 C1.34 7.37 0.68 3.74 0 0 Z " fill="#93BD5D" transform="translate(833,439)"/>
<path d="M0 0 C0.99 0.33 1.98 0.66 3 1 C1.02 3.97 -0.96 6.94 -3 10 C-4 7 -4 7 -3.22265625 5.17578125 C-2.1484375 3.45052083 -1.07421875 1.72526042 0 0 Z " fill="#94C060" transform="translate(637,372)"/>
<path d="M0 0 C0.33 0.99 0.66 1.98 1 3 C-3.296875 7.00390625 -3.296875 7.00390625 -5 8 C-6.32 7.67 -7.64 7.34 -9 7 C-6.03 4.69 -3.06 2.38 0 0 Z " fill="#95C35F" transform="translate(174,177)"/>
<path d="M0 0 C1.1446875 1.175625 1.1446875 1.175625 2.3125 2.375 C4.90891805 5.07257717 4.90891805 5.07257717 8 7 C6.02 7.99 6.02 7.99 4 9 C1.525 5.04 1.525 5.04 -1 1 C-0.67 0.67 -0.34 0.34 0 0 Z " fill="#99C364" transform="translate(83,798)"/>
<path d="M0 0 C0.66 0 1.32 0 2 0 C2.33 0.99 2.66 1.98 3 3 C2.00390625 4.82421875 2.00390625 4.82421875 0.5625 6.6875 C0.08941406 7.31011719 -0.38367188 7.93273437 -0.87109375 8.57421875 C-1.24363281 9.04472656 -1.61617187 9.51523437 -2 10 C-3.0625 8.125 -3.0625 8.125 -4 6 C-3.67 5.34 -3.34 4.68 -3 4 C-2.34 4 -1.68 4 -1 4 C-0.67 2.68 -0.34 1.36 0 0 Z " fill="#94C15C" transform="translate(588,443)"/>
<path d="M0 0 C0.99 1.32 1.98 2.64 3 4 C2.34 5.32 1.68 6.64 1 8 C0.34 7.67 -0.32 7.34 -1 7 C-1 6.34 -1 5.68 -1 5 C-1.66 4.67 -2.32 4.34 -3 4 C-2.01 2.68 -1.02 1.36 0 0 Z " fill="#91C353" transform="translate(85,271)"/>
<path d="M0 0 C0.66 0.66 1.32 1.32 2 2 C-0.31 4.31 -2.62 6.62 -5 9 C-5.33 8.34 -5.66 7.68 -6 7 C-5.06553465 4.96855359 -4.06775224 2.96466413 -3 1 C-2.01 1.33 -1.02 1.66 0 2 C0 1.34 0 0.68 0 0 Z " fill="#9AC55A" transform="translate(230,272)"/>
<path d="M0 0 C0.33 0 0.66 0 1 0 C1 2.97 1 5.94 1 9 C0.01 9.33 -0.98 9.66 -2 10 C-2.1953125 3.9453125 -2.1953125 3.9453125 -2 2 C-1.34 1.34 -0.68 0.68 0 0 Z " fill="#85C33B" transform="translate(39,705)"/>
<path d="M0 0 C1.80411967 2.75924185 2.0127245 3.88972103 1.625 7.25 C1.41875 8.1575 1.2125 9.065 1 10 C-1.12508244 6.81237635 -1.5020163 4.73487777 -2 1 C-1.34 0.67 -0.68 0.34 0 0 Z " fill="#93C055" transform="translate(829,417)"/>
<path d="M0 0 C0.66 0 1.32 0 2 0 C5.42857143 8.42857143 5.42857143 8.42857143 5 13 C4 11 4 11 3 9 C2.46375 7.989375 1.9275 6.97875 1.375 5.9375 C0 3 0 3 0 0 Z " fill="#95BD60" transform="translate(818,393)"/>
<path d="M0 0 C2.45823172 3.68734758 3.01242616 6.69699971 4 11 C3.34 11 2.68 11 2 11 C1.87625 10.360625 1.7525 9.72125 1.625 9.0625 C1.41875 8.381875 1.2125 7.70125 1 7 C0.34 6.67 -0.32 6.34 -1 6 C-0.67 4.02 -0.34 2.04 0 0 Z " fill="#92C35C" transform="translate(890,377)"/>
<path d="M0 0 C2.15377564 2.62198774 3.40072174 4.64404172 4 8 C2.35 8 0.7 8 -1 8 C-1.33 7.34 -1.66 6.68 -2 6 C-1.34 6 -0.68 6 0 6 C0 4.02 0 2.04 0 0 Z " fill="#92C157" transform="translate(876,344)"/>
<path d="M0 0 C1.19156292 4.76625167 0.3415946 5.87879351 -2 10 C-2.99 9.67 -3.98 9.34 -5 9 C-3.35 6.03 -1.7 3.06 0 0 Z " fill="#96C25E" transform="translate(70,293)"/>
<path d="M0 0 C4.95 1.98 4.95 1.98 10 4 C10 4.66 10 5.32 10 6 C6.7 5.01 3.4 4.02 0 3 C0 2.01 0 1.02 0 0 Z " fill="#97C562" transform="translate(618,184)"/>
<path d="M0 0 C1.96301592 3.50538557 2.95902388 7.13351728 4 11 C2.68 10.67 1.36 10.34 0 10 C-0.19412181 8.52168779 -0.38012131 7.04230684 -0.5625 5.5625 C-0.66691406 4.73878906 -0.77132812 3.91507813 -0.87890625 3.06640625 C-0.91886719 2.38449219 -0.95882812 1.70257812 -1 1 C-0.67 0.67 -0.34 0.34 0 0 Z " fill="#95BE5A" transform="translate(91,645)"/>
<path d="M0 0 C0.33 0.66 0.66 1.32 1 2 C-1 4 -3 6 -5 8 C-5.33 6.68 -5.66 5.36 -6 4 C-4.02 2.68 -2.04 1.36 0 0 Z " fill="#98C35E" transform="translate(538,415)"/>
<path d="M0 0 C2.375 0.625 2.375 0.625 5 2 C6.3125 5.125 6.3125 5.125 7 8 C6.01 8 5.02 8 4 8 C2.68 5.36 1.36 2.72 0 0 Z " fill="#95C05F" transform="translate(785,330)"/>
<path d="M0 0 C1.10191901 4.40767604 0.58706842 5.8922935 -1 10 C-1.99 9.67 -2.98 9.34 -4 9 C-2.68 6.03 -1.36 3.06 0 0 Z " fill="#93BE62" transform="translate(53,323)"/>
<path d="M0 0 C1.65 1.32 3.3 2.64 5 4 C4.67 5.65 4.34 7.3 4 9 C3.34 8.67 2.68 8.34 2 8 C2 6.68 2 5.36 2 4 C1.01 3.67 0.02 3.34 -1 3 C-0.67 2.01 -0.34 1.02 0 0 Z " fill="#98C161" transform="translate(234,259)"/>
<path d="M0 0 C0.33 0 0.66 0 1 0 C1.2954439 5.02254631 0.98514628 7.89542386 -2 12 C-2.66 11.67 -3.32 11.34 -4 11 C-3.69255859 10.18595703 -3.69255859 10.18595703 -3.37890625 9.35546875 C-3.10949219 8.64003906 -2.84007812 7.92460938 -2.5625 7.1875 C-2.29566406 6.47980469 -2.02882813 5.77210938 -1.75390625 5.04296875 C-1.13774814 3.37327604 -0.56280765 1.68842296 0 0 Z " fill="#94C15C" transform="translate(822,664)"/>
<path d="M0 0 C0.66 0 1.32 0 2 0 C1.43628586 3.26954202 0.50037734 4.82575883 -2 7 C-2.66 6.67 -3.32 6.34 -4 6 C-4 5.34 -4 4.68 -4 4 C-3.34 4 -2.68 4 -2 4 C-2 3.34 -2 2.68 -2 2 C-1.34 2 -0.68 2 0 2 C0 1.34 0 0.68 0 0 Z " fill="#94C057" transform="translate(645,360)"/>
<path d="M0 0 C1.98 0 3.96 0 6 0 C5.34 2.31 4.68 4.62 4 7 C2.10786631 4.61426621 0.97608217 2.92824652 0 0 Z " fill="#93C454" transform="translate(798,352)"/>
<path d="M0 0 C1.65 1.65 3.3 3.3 5 5 C4.34 6.32 3.68 7.64 3 9 C3 8.34 3 7.68 3 7 C2.34 7 1.68 7 1 7 C0.67 4.69 0.34 2.38 0 0 Z " fill="#95C05A" transform="translate(833,270)"/>
<path d="M0 0 C0.66 0.33 1.32 0.66 2 1 C0.62845496 3.95409701 -0.98863724 6.44008376 -3 9 C-3.36923077 3.46153846 -3.36923077 3.46153846 -1.5 1.125 C-1.005 0.75375 -0.51 0.3825 0 0 Z " fill="#94C158" transform="translate(542,512)"/>
<path d="M0 0 C0.66 0.66 1.32 1.32 2 2 C0.35 2.66 -1.3 3.32 -3 4 C-3 4.66 -3 5.32 -3 6 C-4.32 5.67 -5.64 5.34 -7 5 C-4.69 3.35 -2.38 1.7 0 0 Z " fill="#9AC15F" transform="translate(486,450)"/>
<path d="M0 0 C0.99 0.66 1.98 1.32 3 2 C1.68 4.31 0.36 6.62 -1 9 C-1.33 9 -1.66 9 -2 9 C-2.25 3.375 -2.25 3.375 0 0 Z " fill="#95C05C" transform="translate(132,329)"/>
<path d="M0 0 C1.98 0.495 1.98 0.495 4 1 C4.33 2.32 4.66 3.64 5 5 C2 5 2 5 -1 3 C-0.67 2.01 -0.34 1.02 0 0 Z " fill="#92BF57" transform="translate(699,232)"/>
<path d="M0 0 C1.65 0 3.3 0 5 0 C3.63016497 3.16115776 3.0109362 3.9927092 0 6 C-1 3 -1 3 0 0 Z " fill="#93C257" transform="translate(225,226)"/>
<path d="M0 0 C0.66666667 2.66666667 1.33333333 5.33333333 2 8 C-0.46800047 6.84826645 -2.04783565 5.95216435 -4 4 C-3.34 4 -2.68 4 -2 4 C-1.67 3.01 -1.34 2.02 -1 1 C-0.67 0.67 -0.34 0.34 0 0 Z " fill="#95C358" transform="translate(686,218)"/>
<path d="M0 0 C3.36591866 1.44253657 5.51047079 3.33264727 8 6 C6.68 6.33 5.36 6.66 4 7 C3.67 6.34 3.34 5.68 3 5 C2.34 4.67 1.68 4.34 1 4 C0.375 1.9375 0.375 1.9375 0 0 Z " fill="#99C660" transform="translate(744,177)"/>
<path d="M0 0 C-0.625 1.9375 -0.625 1.9375 -2 4 C-5.125 4.75 -5.125 4.75 -8 5 C-3.16129032 0 -3.16129032 0 0 0 Z " fill="#92C15B" transform="translate(223,144)"/>
<path d="M0 0 C1.98 0.99 1.98 0.99 4 2 C3.34 4.64 2.68 7.28 2 10 C1.67 10 1.34 10 1 10 C0.67 6.7 0.34 3.4 0 0 Z " fill="#91C151" transform="translate(385,544)"/>
<path d="M0 0 C3 3 3 3 3.07421875 5.26171875 C2.94660156 6.06222656 2.81898438 6.86273438 2.6875 7.6875 C2.50767578 8.89986328 2.50767578 8.89986328 2.32421875 10.13671875 C2.21722656 10.75160156 2.11023438 11.36648438 2 12 C1.67 12 1.34 12 1 12 C0.67 8.04 0.34 4.08 0 0 Z " fill="#8DBC56" transform="translate(842,486)"/>
<path d="M0 0 C1.32 0.33 2.64 0.66 4 1 C5.25 4.0625 5.25 4.0625 6 7 C5.34 7.66 4.68 8.32 4 9 C2.68 6.03 1.36 3.06 0 0 Z " fill="#97C262" transform="translate(802,360)"/>
<path d="M0 0 C0.99 0.66 1.98 1.32 3 2 C0.03 4.475 0.03 4.475 -3 7 C-3 5.35 -3 3.7 -3 2 C-2.01 2 -1.02 2 0 2 C0 1.34 0 0.68 0 0 Z " fill="#96C255" transform="translate(212,289)"/>
<path d="M0 0 C0.33 0.99 0.66 1.98 1 3 C-1 6 -1 6 -3.625 6.6875 C-4.800625 6.8421875 -4.800625 6.8421875 -6 7 C-4.02 4.69 -2.04 2.38 0 0 Z " fill="#95BE61" transform="translate(702,242)"/>
<path d="M0 0 C0 0.66 0 1.32 0 2 C-5.41176471 6 -5.41176471 6 -8 6 C-6.98565881 3.46414701 -6.34981128 2.21863205 -4 0.75 C-2 0 -2 0 0 0 Z " fill="#94C05C" transform="translate(267,202)"/>
<path d="M0 0 C-3.12180401 0.96661363 -5.52083795 0.98988909 -8.75 0.5625 C-9.94882812 0.40974609 -9.94882812 0.40974609 -11.171875 0.25390625 C-11.77515625 0.17011719 -12.3784375 0.08632812 -13 0 C-13 -0.33 -13 -0.66 -13 -1 C-11.58566794 -1.2236337 -10.16832382 -1.42826476 -8.75 -1.625 C-7.56664062 -1.79902344 -7.56664062 -1.79902344 -6.359375 -1.9765625 C-3.67847541 -2.00319395 -2.27305911 -1.36592084 0 0 Z " fill="#8FBE59" transform="translate(512,155)"/>
<path d="M0 0 C0.99 0.33 1.98 0.66 3 1 C1.02 3.97 1.02 3.97 -1 7 C-1.66 6.67 -2.32 6.34 -3 6 C-2 4 -1 2 0 0 Z " fill="#96C461" transform="translate(844,785)"/>
<path d="M0 0 C0 0.99 0 1.98 0 3 C-3.62326739 4.2077558 -4.64146369 3.54311128 -8 2 C-8 1.67 -8 1.34 -8 1 C-5.36 0.67 -2.72 0.34 0 0 Z " fill="#93C257" transform="translate(430,601)"/>
<path d="M0 0 C0.66 0.66 1.32 1.32 2 2 C0.35 4.31 -1.3 6.62 -3 9 C-3.33 8.01 -3.66 7.02 -4 6 C-2.0625 2.8125 -2.0625 2.8125 0 0 Z " fill="#98C166" transform="translate(559,488)"/>
<path d="M0 0 C0.66 0 1.32 0 2 0 C1.67 0.99 1.34 1.98 1 3 C0.34 3 -0.32 3 -1 3 C-1 3.66 -1 4.32 -1 5 C-2.65 5 -4.3 5 -6 5 C-5.195625 4.360625 -4.39125 3.72125 -3.5625 3.0625 C-1.7249496 1.59396498 -1.7249496 1.59396498 0 0 Z " fill="#97C25F" transform="translate(652,337)"/>
<path d="M0 0 C0.66 0.33 1.32 0.66 2 1 C0.69593116 3.01920337 -0.63823419 5.01924973 -2 7 C-2.33 7 -2.66 7 -3 7 C-3.1875 4.625 -3.1875 4.625 -3 2 C-2.01 1.34 -1.02 0.68 0 0 Z " fill="#9BC369" transform="translate(150,305)"/>
<path d="M0 0 C0.66 0.33 1.32 0.66 2 1 C0.02 3.31 -1.96 5.62 -4 8 C-4.33 7.34 -4.66 6.68 -5 6 C-4.67 5.34 -4.34 4.68 -4 4 C-3.34 4 -2.68 4 -2 4 C-1.34 2.68 -0.68 1.36 0 0 Z " fill="#9CC567" transform="translate(202,300)"/>
<path d="M0 0 C0.66 0.33 1.32 0.66 2 1 C-1.465 3.97 -1.465 3.97 -5 7 C-5 6.01 -5 5.02 -5 4 C-4.01 3.67 -3.02 3.34 -2 3 C-2 2.34 -2 1.68 -2 1 C-1.34 0.67 -0.68 0.34 0 0 Z " fill="#9BC262" transform="translate(750,297)"/>
<path d="M0 0 C0.66 0 1.32 0 2 0 C2 0.99 2 1.98 2 3 C2.66 3 3.32 3 4 3 C3.67 4.32 3.34 5.64 3 7 C1.68 5.35 0.36 3.7 -1 2 C-0.67 1.34 -0.34 0.68 0 0 Z " fill="#92BF56" transform="translate(707,289)"/>
<path d="M0 0 C0 3 0 3 -1.25 4.75 C-3 6 -3 6 -5.1875 5.6875 C-5.785625 5.460625 -6.38375 5.23375 -7 5 C-4.84365964 2.84365964 -2.62901288 1.52206009 0 0 Z " fill="#97C35D" transform="translate(240,133)"/>
</svg>
